<svg xmlns="http://www.w3.org/2000/svg" viewBox="0 0 200 260" width="200" height="260" role="img" aria-label="Book cover placeholder">
  <defs>
    <linearGradient id="g" x1="0" y1="0" x2="1" y2="1">
      <stop offset="0%" stop-color="#e5e7eb"/>
      <stop offset="100%" stop-color="#cbd5e1"/>
    </linearGradient>
  </defs>
  <rect x="0" y="0" width="200" height="260" rx="8" fill="url(#g)"/>
  <rect x="16" y="16" width="168" height="228" rx="6" fill="#ffffff" stroke="#e5e7eb"/>
  <rect x="32" y="40" width="136" height="24" rx="4" fill="#e2e8f0"/>
  <rect x="32" y="80" width="136" height="8" rx="4" fill="#e2e8f0"/>
  <rect x="32" y="96" width="120" height="8" rx="4" fill="#e2e8f0"/>
  <rect x="32" y="112" width="136" height="8" rx="4" fill="#e2e8f0"/>
  <rect x="32" y="128" width="104" height="8" rx="4" fill="#e2e8f0"/>
  <g opacity="0.6">
    <circle cx="100" cy="190" r="28" fill="#10b981"/>
    <path d="M100 175a15 15 0 100 30 15 15 0 000-30zm-2 22l-6-6 2.8-2.8L98 191l7.2-7.2L108 186l-10 11z" fill="#ffffff"/>
  </g>
</svg>

